<mxfile host="app.diagrams.net" modified="2021-06-09T05:44:42.876Z" agent="5.0 (Windows NT 10.0; Win64; x64) AppleWebKit/537.36 (KHTML, like Gecko) Chrome/91.0.4472.77 Safari/537.36" etag="i8521gWTRJfUYajhLE9h" version="14.7.6" type="github">
  <diagram name="Page-1" id="0783ab3e-0a74-02c8-0abd-f7b4e66b4bec">
    <mxGraphModel dx="2130" dy="925" grid="1" gridSize="10" guides="1" tooltips="1" connect="1" arrows="1" fold="1" page="1" pageScale="1" pageWidth="850" pageHeight="1100" background="none" math="0" shadow="0">
      <root>
        <mxCell id="0" />
        <mxCell id="1" parent="0" />
        <mxCell id="1c1d494c118603dd-1" value="Диаграмма работы функции записи видео с экрана" style="swimlane;html=1;childLayout=stackLayout;startSize=20;rounded=0;shadow=0;comic=0;labelBackgroundColor=none;strokeWidth=1;fontFamily=Verdana;fontSize=12;align=center;fillColor=#97D077;" parent="1" vertex="1">
          <mxGeometry x="40" y="20" width="520" height="990" as="geometry" />
        </mxCell>
        <mxCell id="1c1d494c118603dd-2" value="Система" style="swimlane;html=1;startSize=20;fillColor=#FFFFFF;" parent="1c1d494c118603dd-1" vertex="1">
          <mxGeometry y="20" width="250" height="970" as="geometry" />
        </mxCell>
        <mxCell id="NT4vfXx2QpGJQvATXKHo-20" value="Скачать файл с аудиопотоком" style="rounded=1;whiteSpace=wrap;html=1;shadow=0;strokeColor=#97D077;" vertex="1" parent="1c1d494c118603dd-2">
          <mxGeometry x="40" y="120" width="160" height="40" as="geometry" />
        </mxCell>
        <mxCell id="NT4vfXx2QpGJQvATXKHo-22" value="Извлечь из метаданных продолжительность аудио" style="rounded=1;whiteSpace=wrap;html=1;shadow=0;strokeColor=#97D077;" vertex="1" parent="1c1d494c118603dd-2">
          <mxGeometry x="40" y="200" width="160" height="40" as="geometry" />
        </mxCell>
        <mxCell id="NT4vfXx2QpGJQvATXKHo-24" value="Начать запись видео с экрана" style="rounded=1;whiteSpace=wrap;html=1;shadow=0;strokeColor=#97D077;fillColor=#FFFFFF;" vertex="1" parent="1c1d494c118603dd-2">
          <mxGeometry x="40" y="280" width="160" height="40" as="geometry" />
        </mxCell>
        <mxCell id="NT4vfXx2QpGJQvATXKHo-29" value="" style="endArrow=classic;html=1;exitX=0;exitY=0.5;exitDx=0;exitDy=0;" edge="1" parent="1c1d494c118603dd-2" source="NT4vfXx2QpGJQvATXKHo-26">
          <mxGeometry width="50" height="50" relative="1" as="geometry">
            <mxPoint x="120" y="490" as="sourcePoint" />
            <mxPoint x="120" y="480" as="targetPoint" />
            <Array as="points">
              <mxPoint x="120" y="435" />
            </Array>
          </mxGeometry>
        </mxCell>
        <mxCell id="NT4vfXx2QpGJQvATXKHo-31" value="Выполнить функцию обратного вызова" style="rounded=1;whiteSpace=wrap;html=1;shadow=0;strokeColor=#97D077;fillColor=#FFFFFF;" vertex="1" parent="1c1d494c118603dd-2">
          <mxGeometry x="40" y="480" width="160" height="40" as="geometry" />
        </mxCell>
        <mxCell id="NT4vfXx2QpGJQvATXKHo-33" value="Приостановление выполнения программы на продолжительность аудиопотока" style="rounded=1;whiteSpace=wrap;html=1;shadow=0;strokeColor=#97D077;fillColor=#FFFFFF;" vertex="1" parent="1c1d494c118603dd-2">
          <mxGeometry x="40" y="560" width="160" height="70" as="geometry" />
        </mxCell>
        <mxCell id="NT4vfXx2QpGJQvATXKHo-36" value="" style="endArrow=classic;html=1;exitX=0.5;exitY=1;exitDx=0;exitDy=0;" edge="1" parent="1c1d494c118603dd-2" source="NT4vfXx2QpGJQvATXKHo-33">
          <mxGeometry width="50" height="50" relative="1" as="geometry">
            <mxPoint x="100" y="710" as="sourcePoint" />
            <mxPoint x="120" y="680" as="targetPoint" />
          </mxGeometry>
        </mxCell>
        <mxCell id="NT4vfXx2QpGJQvATXKHo-37" value="Закончить запись с экрана" style="rounded=1;whiteSpace=wrap;html=1;shadow=0;strokeColor=#97D077;fillColor=#FFFFFF;" vertex="1" parent="1c1d494c118603dd-2">
          <mxGeometry x="40" y="680" width="160" height="40" as="geometry" />
        </mxCell>
        <mxCell id="NT4vfXx2QpGJQvATXKHo-38" value="" style="ellipse;html=1;shape=endState;fillColor=#000000;strokeColor=#ff0000;shadow=0;" vertex="1" parent="1c1d494c118603dd-2">
          <mxGeometry x="105" y="760" width="30" height="30" as="geometry" />
        </mxCell>
        <mxCell id="NT4vfXx2QpGJQvATXKHo-39" value="" style="endArrow=classic;html=1;exitX=0.5;exitY=1;exitDx=0;exitDy=0;entryX=0.5;entryY=0;entryDx=0;entryDy=0;" edge="1" parent="1c1d494c118603dd-2" source="NT4vfXx2QpGJQvATXKHo-37" target="NT4vfXx2QpGJQvATXKHo-38">
          <mxGeometry width="50" height="50" relative="1" as="geometry">
            <mxPoint x="170" y="780" as="sourcePoint" />
            <mxPoint x="220" y="730" as="targetPoint" />
          </mxGeometry>
        </mxCell>
        <mxCell id="1c1d494c118603dd-4" value="Пользователь" style="swimlane;html=1;startSize=20;" parent="1c1d494c118603dd-1" vertex="1">
          <mxGeometry x="250" y="20" width="270" height="970" as="geometry" />
        </mxCell>
        <mxCell id="NT4vfXx2QpGJQvATXKHo-17" value="" style="ellipse;whiteSpace=wrap;html=1;aspect=fixed;fillColor=#99CCFF;" vertex="1" parent="1c1d494c118603dd-4">
          <mxGeometry x="110" y="40" width="40" height="40" as="geometry" />
        </mxCell>
        <mxCell id="NT4vfXx2QpGJQvATXKHo-26" value="" style="rhombus;whiteSpace=wrap;html=1;shadow=0;strokeColor=#99CCFF;fillColor=#99CCFF;" vertex="1" parent="1c1d494c118603dd-4">
          <mxGeometry x="95" y="400" width="70" height="70" as="geometry" />
        </mxCell>
        <mxCell id="NT4vfXx2QpGJQvATXKHo-27" value="Есть ли функция для обратного между началом и концом записи?" style="text;html=1;strokeColor=none;fillColor=none;align=center;verticalAlign=middle;whiteSpace=wrap;rounded=0;shadow=0;" vertex="1" parent="1c1d494c118603dd-4">
          <mxGeometry x="65" y="480" width="130" height="60" as="geometry" />
        </mxCell>
        <mxCell id="NT4vfXx2QpGJQvATXKHo-30" value="Да" style="text;html=1;strokeColor=none;fillColor=none;align=center;verticalAlign=middle;whiteSpace=wrap;rounded=0;shadow=0;" vertex="1" parent="1c1d494c118603dd-4">
          <mxGeometry x="10" y="410" width="40" height="20" as="geometry" />
        </mxCell>
        <mxCell id="NT4vfXx2QpGJQvATXKHo-35" value="Нет" style="text;html=1;strokeColor=none;fillColor=none;align=center;verticalAlign=middle;whiteSpace=wrap;rounded=0;shadow=0;" vertex="1" parent="1c1d494c118603dd-4">
          <mxGeometry x="180" y="410" width="40" height="20" as="geometry" />
        </mxCell>
        <mxCell id="NT4vfXx2QpGJQvATXKHo-18" value="" style="endArrow=classic;html=1;exitX=0.5;exitY=1;exitDx=0;exitDy=0;entryX=0.5;entryY=0;entryDx=0;entryDy=0;" edge="1" parent="1c1d494c118603dd-1" source="NT4vfXx2QpGJQvATXKHo-17" target="NT4vfXx2QpGJQvATXKHo-20">
          <mxGeometry width="50" height="50" relative="1" as="geometry">
            <mxPoint x="360" y="290" as="sourcePoint" />
            <mxPoint x="380" y="180" as="targetPoint" />
            <Array as="points">
              <mxPoint x="380" y="120" />
              <mxPoint x="120" y="120" />
            </Array>
          </mxGeometry>
        </mxCell>
        <mxCell id="NT4vfXx2QpGJQvATXKHo-34" value="" style="endArrow=classic;html=1;exitX=1;exitY=0.5;exitDx=0;exitDy=0;entryX=0.994;entryY=0.572;entryDx=0;entryDy=0;entryPerimeter=0;" edge="1" parent="1c1d494c118603dd-1" source="NT4vfXx2QpGJQvATXKHo-26" target="NT4vfXx2QpGJQvATXKHo-33">
          <mxGeometry width="50" height="50" relative="1" as="geometry">
            <mxPoint x="460" y="610" as="sourcePoint" />
            <mxPoint x="480" y="650" as="targetPoint" />
            <Array as="points">
              <mxPoint x="480" y="455" />
              <mxPoint x="480" y="620" />
            </Array>
          </mxGeometry>
        </mxCell>
        <mxCell id="NT4vfXx2QpGJQvATXKHo-21" value="" style="endArrow=classic;html=1;exitX=0.5;exitY=1;exitDx=0;exitDy=0;" edge="1" parent="1" source="NT4vfXx2QpGJQvATXKHo-20">
          <mxGeometry width="50" height="50" relative="1" as="geometry">
            <mxPoint x="400" y="300" as="sourcePoint" />
            <mxPoint x="160" y="240" as="targetPoint" />
          </mxGeometry>
        </mxCell>
        <mxCell id="NT4vfXx2QpGJQvATXKHo-23" value="" style="endArrow=classic;html=1;exitX=0.5;exitY=1;exitDx=0;exitDy=0;" edge="1" parent="1" source="NT4vfXx2QpGJQvATXKHo-22">
          <mxGeometry width="50" height="50" relative="1" as="geometry">
            <mxPoint x="160" y="290" as="sourcePoint" />
            <mxPoint x="160" y="320" as="targetPoint" />
          </mxGeometry>
        </mxCell>
        <mxCell id="NT4vfXx2QpGJQvATXKHo-25" value="" style="endArrow=classic;html=1;exitX=0.5;exitY=1;exitDx=0;exitDy=0;" edge="1" parent="1" source="NT4vfXx2QpGJQvATXKHo-24">
          <mxGeometry width="50" height="50" relative="1" as="geometry">
            <mxPoint x="280" y="360" as="sourcePoint" />
            <mxPoint x="420" y="440" as="targetPoint" />
            <Array as="points">
              <mxPoint x="160" y="400" />
              <mxPoint x="420" y="400" />
            </Array>
          </mxGeometry>
        </mxCell>
        <mxCell id="NT4vfXx2QpGJQvATXKHo-32" value="" style="endArrow=classic;html=1;exitX=0.5;exitY=1;exitDx=0;exitDy=0;" edge="1" parent="1" source="NT4vfXx2QpGJQvATXKHo-31">
          <mxGeometry width="50" height="50" relative="1" as="geometry">
            <mxPoint x="160" y="650" as="sourcePoint" />
            <mxPoint x="160" y="600" as="targetPoint" />
          </mxGeometry>
        </mxCell>
      </root>
    </mxGraphModel>
  </diagram>
</mxfile>
